<svg width="112" height="48" viewBox="0 0 112 48" fill="none" xmlns="http://www.w3.org/2000/svg">
<g clip-path="url(#clip0_4306_19325)">
<path d="M55.5642 34.151C55.0055 35.3534 54.1762 36.2794 53.0727 36.9324C51.9692 37.5854 50.5395 37.9101 48.7802 37.9101H43.9879V23.8757H45.605C46.3372 23.8757 47.0139 24.0484 47.635 24.3939C48.2562 24.7394 48.7767 25.23 49.1931 25.8623C49.6095 26.4946 49.8767 27.2478 49.9912 28.1219H50.7408V19.0178H49.9912C49.8767 19.892 49.6095 20.6313 49.1931 21.2394C48.7767 21.8475 48.2562 22.3105 47.635 22.6284C47.0139 22.9497 46.3372 23.1086 45.605 23.1086H43.9879V10.0727H49.1653C50.6679 10.0727 51.9171 10.3871 52.9165 11.0124C53.9159 11.6378 54.6828 12.5016 55.2172 13.5968C55.7481 14.6921 56.0743 15.9394 56.1888 17.3352H56.9384V9.30908H35.4619V10.0727H38.9251V37.9101H35.4619V38.6737H57.3235V29.8633H56.574C56.4595 31.5217 56.1229 32.9487 55.5642 34.151Z" fill="black"/>
<path d="M79.5007 34.151C78.942 35.3534 78.1127 36.2794 77.0092 36.9324C75.9057 37.5854 74.476 37.9101 72.7167 37.9101H67.9245V23.8757H69.5415C70.2737 23.8757 70.9504 24.0484 71.5715 24.3939C72.1927 24.7394 72.7132 25.23 73.1296 25.8623C73.546 26.4946 73.8132 27.2478 73.9277 28.1219H74.6773V19.0178H73.9277C73.8132 19.892 73.546 20.6313 73.1296 21.2394C72.7132 21.8475 72.1927 22.3105 71.5715 22.6284C70.9504 22.9497 70.2737 23.1086 69.5415 23.1086H67.9245V10.0727H73.1019C74.6044 10.0727 75.8536 10.3871 76.853 11.0124C77.8524 11.6378 78.6193 12.5016 79.1537 13.5968C79.6846 14.6921 80.0108 15.9394 80.1253 17.3352H80.8749V9.30908H59.3984V10.0727H62.8616V37.9101H59.3984V38.6737H81.2601V29.8633H80.5105C80.396 31.5217 80.0594 32.9487 79.5007 34.151Z" fill="black"/>
<path d="M83.2447 10.0727H86.7078V37.9101H83.2447V38.6737H95.5982V37.9101H91.7672V24.4423H92.9401C93.9812 24.4423 94.8487 24.6116 95.5462 24.9502C96.2437 25.2888 96.7885 25.7725 97.1737 26.3979C97.5588 27.0232 97.8087 27.7764 97.9232 28.6506H98.6727V19.7054H97.9232C97.8087 20.5795 97.5588 21.3154 97.1737 21.9063C96.7885 22.5005 96.2471 22.9462 95.5462 23.2468C94.8452 23.5474 93.9777 23.696 92.9401 23.696H91.7672V10.0727H96.7711C98.232 10.0727 99.4362 10.3871 100.38 11.0124C101.324 11.6378 102.046 12.5016 102.545 13.5968C103.045 14.6921 103.354 15.9394 103.468 17.3352H104.218V9.30908H83.2412V10.0727H83.2447Z" fill="black"/>
<path d="M30.1872 37.347C30.1872 37.347 30.1872 37.3436 30.1838 37.3436C29.9756 37.1121 29.8298 36.8702 29.8298 36.8702C29.5869 36.3485 29.4412 35.6609 29.403 34.8006C29.3683 33.9369 29.3405 33.004 29.3301 31.9813C29.3162 30.9655 29.2226 29.9463 29.0525 28.9305C28.879 27.9147 28.5251 26.9749 27.9941 26.1146C27.4632 25.2543 26.6686 24.5667 25.6136 24.0415C25.5859 24.0277 25.5651 24.0139 25.5408 24.007C24.9994 23.7479 24.3609 23.5578 23.6253 23.4335C24.6906 23.3194 25.6622 23.1329 26.5263 22.8703C28.067 22.4038 29.2434 21.6575 30.0588 20.6314C30.8743 19.6052 31.2803 18.2612 31.2803 16.5959C31.2803 14.9305 30.8466 13.5589 29.9825 12.4843C29.115 11.4098 27.9074 10.6117 26.3563 10.0934C24.8051 9.57517 23.0007 9.31604 20.9498 9.31604H7.77734V10.0658H11.7784V37.9447H7.77734V38.6945H20.8457V37.9447H16.8239V24.0105H20.8145C21.2066 24.0105 21.6022 24.1037 21.9353 24.311C21.9353 24.311 21.9388 24.311 21.9423 24.3145C22.6085 24.7395 23.0874 25.3026 23.3754 26.0213C23.6635 26.733 23.8474 27.5346 23.9237 28.4191C23.9966 29.3036 24.0452 30.2192 24.059 31.1659C24.0729 32.1091 24.1215 33.0282 24.2117 33.9127C24.302 34.8006 24.5136 35.5953 24.8398 36.3105C25.166 37.0222 25.6761 37.5889 26.3701 38.0173C27.1995 38.5217 28.2058 38.615 28.9727 38.6427C29.0733 38.6461 29.1636 38.653 29.2573 38.653C30.3122 38.6807 31.3116 38.698 32.2381 38.698C32.6684 38.698 33.0848 38.7083 33.4838 38.698V37.9344C32.8245 37.9309 32.1687 37.9171 31.5093 37.9137C31.0166 37.9137 30.5273 37.7305 30.1942 37.3574L30.1872 37.347ZM20.3634 10.0589C21.5953 10.0589 22.6328 10.2973 23.4795 10.7706C24.3262 11.244 24.9647 11.9661 25.395 12.9335C25.8253 13.9009 26.0405 15.1206 26.0405 16.5959C26.0405 18.0712 25.8253 19.2908 25.395 20.2582C24.9647 21.2257 24.3262 21.9478 23.4795 22.4211C22.6328 22.8945 21.5953 23.1329 20.3634 23.1329H16.8239V10.0589H20.3634Z" fill="black"/>
</g>
<defs>
<clipPath id="clip0_4306_19325">
<rect width="96.4444" height="29.3819" fill="white" transform="translate(7.77734 9.30908)"/>
</clipPath>
</defs>
</svg>
